# xmcd
#
# Track frame offsets:
#	150
#	13466
#	25111
#	41184
#	51923
#	64629
#	76013
#	97667
#	116174
#	131507
#	143037
#	152671
#	162446
#	180962
#	198361
#
# Disc length: 2997 seconds
#
# Revision: 0
# Processed by: cddbd v1.5.2PL0 Copyright (c) Steve Scherf et al.
# Submitted via: EasyCDDAExtractor 11.1.0.1
#
DISCID=be0bb30f
DTITLE=Various Artist - Funk Fever - Cd2 - Rare Groove 70's
DYEAR=2005
DGENRE=Funk
TTITLE0=Sly and The Family Stone - If You Want Me To Stay
TTITLE1=Barbara Howard - I Don't Want Your Love
TTITLE2=All Points Bulletin Band - Sexy Ways, Pretty Legs (Part I)
TTITLE3=Latin Breed - I Turn You On
TTITLE4=Andre Maurice - Be True To You
TTITLE5=Markus Kelly and The Impassions - Pushin' To The Top
TTITLE6=Joe Isaac Henderson - Give A Helping Hand
TTITLE7=The Chefs - Mr Machine (Parts I and Ii)
TTITLE8=Young Senators - Jungle
TTITLE9=Joe Bravo - Sissy Strut
TTITLE10=Little Denise - Check Me Out
TTITLE11=The Groove Merchants - There's Got To Be Someone For Me
TTITLE12=The Us - Let's Do It Today
TTITLE13=Stretch - Why Did You Do It
TTITLE14=Roy Ayers - Love Will Bring Us Back Together Again
EXTD=YEAR: 2005\n
EXTT0=
EXTT1=
EXTT2=
EXTT3=
EXTT4=
EXTT5=
EXTT6=
EXTT7=
EXTT8=
EXTT9=
EXTT10=
EXTT11=
EXTT12=
EXTT13=
EXTT14=
PLAYORDER=
